<?xml version="1.0" encoding="utf-8" standalone="no"?>
<!DOCTYPE svg PUBLIC "-//W3C//DTD SVG 1.1//EN"
  "http://www.w3.org/Graphics/SVG/1.1/DTD/svg11.dtd">
<svg xmlns:xlink="http://www.w3.org/1999/xlink" width="872.39952pt" height="332.39952pt" viewBox="0 0 872.39952 332.39952" xmlns="http://www.w3.org/2000/svg" version="1.1">
 <metadata>
  <rdf:RDF xmlns:dc="http://purl.org/dc/elements/1.1/" xmlns:cc="http://creativecommons.org/ns#" xmlns:rdf="http://www.w3.org/1999/02/22-rdf-syntax-ns#">
   <cc:Work>
    <dc:type rdf:resource="http://purl.org/dc/dcmitype/StillImage"/>
    <dc:date>2026-06-18T22:14:56.107075</dc:date>
    <dc:format>image/svg+xml</dc:format>
    <dc:creator>
     <cc:Agent>
      <dc:title>Matplotlib v3.9.4, https://matplotlib.org/</dc:title>
     </cc:Agent>
    </dc:creator>
   </cc:Work>
  </rdf:RDF>
 </metadata>
 <defs>
  <style type="text/css">*{stroke-linejoin: round; stroke-linecap: butt}</style>
 </defs>
 <g id="figure_1">
  <g id="patch_1">
   <path d="M 0 332.39952 
L 872.39952 332.39952 
L 872.39952 0 
L 0 0 
z
" style="fill: #ffffff"/>
  </g>
  <g id="axes_1">
   <g id="patch_2">
    <path d="M 176.328125 293.875457 
L 613.973318 293.875457 
L 613.973318 24.976406 
L 176.328125 24.976406 
z
" style="fill: #ffffff"/>
   </g>
   <g id="matplotlib.axis_1">
    <g id="xtick_1">
     <g id="line2d_1">
      <path d="M 216.114052 293.875457 
L 216.114052 24.976406 
" clip-path="url(#p2ebfff0f9d)" style="fill: none; stroke-dasharray: 2.96,1.28; stroke-dashoffset: 0; stroke: #b0b0b0; stroke-opacity: 0.4; stroke-width: 0.8"/>
     </g>
     <g id="line2d_2">
      <defs>
       <path id="m3f0a8bfa44" d="M 0 0 
L 0 3.5 
" style="stroke: #000000; stroke-width: 0.8"/>
      </defs>
      <g>
       <use xlink:href="#m3f0a8bfa44" x="216.114052" y="293.875457" style="stroke: #000000; stroke-width: 0.8"/>
      </g>
     </g>
     <g id="text_1">
      <!-- 800 -->
      <g transform="translate(206.570302 308.473895) scale(0.1 -0.1)">
       <defs>
        <path id="DejaVuSans-38" d="M 2034 2216 
Q 1584 2216 1326 1975 
Q 1069 1734 1069 1313 
Q 1069 891 1326 650 
Q 1584 409 2034 409 
Q 2484 409 2743 651 
Q 3003 894 3003 1313 
Q 3003 1734 2745 1975 
Q 2488 2216 2034 2216 
z
M 1403 2484 
Q 997 2584 770 2862 
Q 544 3141 544 3541 
Q 544 4100 942 4425 
Q 1341 4750 2034 4750 
Q 2731 4750 3128 4425 
Q 3525 4100 3525 3541 
Q 3525 3141 3298 2862 
Q 3072 2584 2669 2484 
Q 3125 2378 3379 2068 
Q 3634 1759 3634 1313 
Q 3634 634 3220 271 
Q 2806 -91 2034 -91 
Q 1263 -91 848 271 
Q 434 634 434 1313 
Q 434 1759 690 2068 
Q 947 2378 1403 2484 
z
M 1172 3481 
Q 1172 3119 1398 2916 
Q 1625 2713 2034 2713 
Q 2441 2713 2670 2916 
Q 2900 3119 2900 3481 
Q 2900 3844 2670 4047 
Q 2441 4250 2034 4250 
Q 1625 4250 1398 4047 
Q 1172 3844 1172 3481 
z
" transform="scale(0.015625)"/>
        <path id="DejaVuSans-30" d="M 2034 4250 
Q 1547 4250 1301 3770 
Q 1056 3291 1056 2328 
Q 1056 1369 1301 889 
Q 1547 409 2034 409 
Q 2525 409 2770 889 
Q 3016 1369 3016 2328 
Q 3016 3291 2770 3770 
Q 2525 4250 2034 4250 
z
M 2034 4750 
Q 2819 4750 3233 4129 
Q 3647 3509 3647 2328 
Q 3647 1150 3233 529 
Q 2819 -91 2034 -91 
Q 1250 -91 836 529 
Q 422 1150 422 2328 
Q 422 3509 836 4129 
Q 1250 4750 2034 4750 
z
" transform="scale(0.015625)"/>
       </defs>
       <use xlink:href="#DejaVuSans-38"/>
       <use xlink:href="#DejaVuSans-30" x="63.623047"/>
       <use xlink:href="#DejaVuSans-30" x="127.246094"/>
      </g>
     </g>
    </g>
    <g id="xtick_2">
     <g id="line2d_3">
      <path d="M 295.685905 293.875457 
L 295.685905 24.976406 
" clip-path="url(#p2ebfff0f9d)" style="fill: none; stroke-dasharray: 2.96,1.28; stroke-dashoffset: 0; stroke: #b0b0b0; stroke-opacity: 0.4; stroke-width: 0.8"/>
     </g>
     <g id="line2d_4">
      <g>
       <use xlink:href="#m3f0a8bfa44" x="295.685905" y="293.875457" style="stroke: #000000; stroke-width: 0.8"/>
      </g>
     </g>
     <g id="text_2">
      <!-- 900 -->
      <g transform="translate(286.142155 308.473895) scale(0.1 -0.1)">
       <defs>
        <path id="DejaVuSans-39" d="M 703 97 
L 703 672 
Q 941 559 1184 500 
Q 1428 441 1663 441 
Q 2288 441 2617 861 
Q 2947 1281 2994 2138 
Q 2813 1869 2534 1725 
Q 2256 1581 1919 1581 
Q 1219 1581 811 2004 
Q 403 2428 403 3163 
Q 403 3881 828 4315 
Q 1253 4750 1959 4750 
Q 2769 4750 3195 4129 
Q 3622 3509 3622 2328 
Q 3622 1225 3098 567 
Q 2575 -91 1691 -91 
Q 1453 -91 1209 -44 
Q 966 3 703 97 
z
M 1959 2075 
Q 2384 2075 2632 2365 
Q 2881 2656 2881 3163 
Q 2881 3666 2632 3958 
Q 2384 4250 1959 4250 
Q 1534 4250 1286 3958 
Q 1038 3666 1038 3163 
Q 1038 2656 1286 2365 
Q 1534 2075 1959 2075 
z
" transform="scale(0.015625)"/>
       </defs>
       <use xlink:href="#DejaVuSans-39"/>
       <use xlink:href="#DejaVuSans-30" x="63.623047"/>
       <use xlink:href="#DejaVuSans-30" x="127.246094"/>
      </g>
     </g>
    </g>
    <g id="xtick_3">
     <g id="line2d_5">
      <path d="M 375.257758 293.875457 
L 375.257758 24.976406 
" clip-path="url(#p2ebfff0f9d)" style="fill: none; stroke-dasharray: 2.96,1.28; stroke-dashoffset: 0; stroke: #b0b0b0; stroke-opacity: 0.4; stroke-width: 0.8"/>
     </g>
     <g id="line2d_6">
      <g>
       <use xlink:href="#m3f0a8bfa44" x="375.257758" y="293.875457" style="stroke: #000000; stroke-width: 0.8"/>
      </g>
     </g>
     <g id="text_3">
      <!-- 1000 -->
      <g transform="translate(362.532758 308.473895) scale(0.1 -0.1)">
       <defs>
        <path id="DejaVuSans-31" d="M 794 531 
L 1825 531 
L 1825 4091 
L 703 3866 
L 703 4441 
L 1819 4666 
L 2450 4666 
L 2450 531 
L 3481 531 
L 3481 0 
L 794 0 
L 794 531 
z
" transform="scale(0.015625)"/>
       </defs>
       <use xlink:href="#DejaVuSans-31"/>
       <use xlink:href="#DejaVuSans-30" x="63.623047"/>
       <use xlink:href="#DejaVuSans-30" x="127.246094"/>
       <use xlink:href="#DejaVuSans-30" x="190.869141"/>
      </g>
     </g>
    </g>
    <g id="xtick_4">
     <g id="line2d_7">
      <path d="M 454.829612 293.875457 
L 454.829612 24.976406 
" clip-path="url(#p2ebfff0f9d)" style="fill: none; stroke-dasharray: 2.96,1.28; stroke-dashoffset: 0; stroke: #b0b0b0; stroke-opacity: 0.4; stroke-width: 0.8"/>
     </g>
     <g id="line2d_8">
      <g>
       <use xlink:href="#m3f0a8bfa44" x="454.829612" y="293.875457" style="stroke: #000000; stroke-width: 0.8"/>
      </g>
     </g>
     <g id="text_4">
      <!-- 1100 -->
      <g transform="translate(442.104612 308.473895) scale(0.1 -0.1)">
       <use xlink:href="#DejaVuSans-31"/>
       <use xlink:href="#DejaVuSans-31" x="63.623047"/>
       <use xlink:href="#DejaVuSans-30" x="127.246094"/>
       <use xlink:href="#DejaVuSans-30" x="190.869141"/>
      </g>
     </g>
    </g>
    <g id="xtick_5">
     <g id="line2d_9">
      <path d="M 534.401465 293.875457 
L 534.401465 24.976406 
" clip-path="url(#p2ebfff0f9d)" style="fill: none; stroke-dasharray: 2.96,1.28; stroke-dashoffset: 0; stroke: #b0b0b0; stroke-opacity: 0.4; stroke-width: 0.8"/>
     </g>
     <g id="line2d_10">
      <g>
       <use xlink:href="#m3f0a8bfa44" x="534.401465" y="293.875457" style="stroke: #000000; stroke-width: 0.8"/>
      </g>
     </g>
     <g id="text_5">
      <!-- 1200 -->
      <g transform="translate(521.676465 308.473895) scale(0.1 -0.1)">
       <defs>
        <path id="DejaVuSans-32" d="M 1228 531 
L 3431 531 
L 3431 0 
L 469 0 
L 469 531 
Q 828 903 1448 1529 
Q 2069 2156 2228 2338 
Q 2531 2678 2651 2914 
Q 2772 3150 2772 3378 
Q 2772 3750 2511 3984 
Q 2250 4219 1831 4219 
Q 1534 4219 1204 4116 
Q 875 4013 500 3803 
L 500 4441 
Q 881 4594 1212 4672 
Q 1544 4750 1819 4750 
Q 2544 4750 2975 4387 
Q 3406 4025 3406 3419 
Q 3406 3131 3298 2873 
Q 3191 2616 2906 2266 
Q 2828 2175 2409 1742 
Q 1991 1309 1228 531 
z
" transform="scale(0.015625)"/>
       </defs>
       <use xlink:href="#DejaVuSans-31"/>
       <use xlink:href="#DejaVuSans-32" x="63.623047"/>
       <use xlink:href="#DejaVuSans-30" x="127.246094"/>
       <use xlink:href="#DejaVuSans-30" x="190.869141"/>
      </g>
     </g>
    </g>
    <g id="xtick_6">
     <g id="line2d_11">
      <path d="M 613.973318 293.875457 
L 613.973318 24.976406 
" clip-path="url(#p2ebfff0f9d)" style="fill: none; stroke-dasharray: 2.96,1.28; stroke-dashoffset: 0; stroke: #b0b0b0; stroke-opacity: 0.4; stroke-width: 0.8"/>
     </g>
     <g id="line2d_12">
      <g>
       <use xlink:href="#m3f0a8bfa44" x="613.973318" y="293.875457" style="stroke: #000000; stroke-width: 0.8"/>
      </g>
     </g>
     <g id="text_6">
      <!-- 1300 -->
      <g transform="translate(601.248318 308.473895) scale(0.1 -0.1)">
       <defs>
        <path id="DejaVuSans-33" d="M 2597 2516 
Q 3050 2419 3304 2112 
Q 3559 1806 3559 1356 
Q 3559 666 3084 287 
Q 2609 -91 1734 -91 
Q 1441 -91 1130 -33 
Q 819 25 488 141 
L 488 750 
Q 750 597 1062 519 
Q 1375 441 1716 441 
Q 2309 441 2620 675 
Q 2931 909 2931 1356 
Q 2931 1769 2642 2001 
Q 2353 2234 1838 2234 
L 1294 2234 
L 1294 2753 
L 1863 2753 
Q 2328 2753 2575 2939 
Q 2822 3125 2822 3475 
Q 2822 3834 2567 4026 
Q 2313 4219 1838 4219 
Q 1578 4219 1281 4162 
Q 984 4106 628 3988 
L 628 4550 
Q 988 4650 1302 4700 
Q 1616 4750 1894 4750 
Q 2613 4750 3031 4423 
Q 3450 4097 3450 3541 
Q 3450 3153 3228 2886 
Q 3006 2619 2597 2516 
z
" transform="scale(0.015625)"/>
       </defs>
       <use xlink:href="#DejaVuSans-31"/>
       <use xlink:href="#DejaVuSans-33" x="63.623047"/>
       <use xlink:href="#DejaVuSans-30" x="127.246094"/>
       <use xlink:href="#DejaVuSans-30" x="190.869141"/>
      </g>
     </g>
    </g>
    <g id="text_7">
     <!-- Arena-style ELO Score -->
     <g transform="translate(334.269159 322.911864) scale(0.11 -0.11)">
      <defs>
       <path id="DejaVuSans-41" d="M 2188 4044 
L 1331 1722 
L 3047 1722 
L 2188 4044 
z
M 1831 4666 
L 2547 4666 
L 4325 0 
L 3669 0 
L 3244 1197 
L 1141 1197 
L 716 0 
L 50 0 
L 1831 4666 
z
" transform="scale(0.015625)"/>
       <path id="DejaVuSans-72" d="M 2631 2963 
Q 2534 3019 2420 3045 
Q 2306 3072 2169 3072 
Q 1681 3072 1420 2755 
Q 1159 2438 1159 1844 
L 1159 0 
L 581 0 
L 581 3500 
L 1159 3500 
L 1159 2956 
Q 1341 3275 1631 3429 
Q 1922 3584 2338 3584 
Q 2397 3584 2469 3576 
Q 2541 3569 2628 3553 
L 2631 2963 
z
" transform="scale(0.015625)"/>
       <path id="DejaVuSans-65" d="M 3597 1894 
L 3597 1613 
L 953 1613 
Q 991 1019 1311 708 
Q 1631 397 2203 397 
Q 2534 397 2845 478 
Q 3156 559 3463 722 
L 3463 178 
Q 3153 47 2828 -22 
Q 2503 -91 2169 -91 
Q 1331 -91 842 396 
Q 353 884 353 1716 
Q 353 2575 817 3079 
Q 1281 3584 2069 3584 
Q 2775 3584 3186 3129 
Q 3597 2675 3597 1894 
z
M 3022 2063 
Q 3016 2534 2758 2815 
Q 2500 3097 2075 3097 
Q 1594 3097 1305 2825 
Q 1016 2553 972 2059 
L 3022 2063 
z
" transform="scale(0.015625)"/>
       <path id="DejaVuSans-6e" d="M 3513 2113 
L 3513 0 
L 2938 0 
L 2938 2094 
Q 2938 2591 2744 2837 
Q 2550 3084 2163 3084 
Q 1697 3084 1428 2787 
Q 1159 2491 1159 1978 
L 1159 0 
L 581 0 
L 581 3500 
L 1159 3500 
L 1159 2956 
Q 1366 3272 1645 3428 
Q 1925 3584 2291 3584 
Q 2894 3584 3203 3211 
Q 3513 2838 3513 2113 
z
" transform="scale(0.015625)"/>
       <path id="DejaVuSans-61" d="M 2194 1759 
Q 1497 1759 1228 1600 
Q 959 1441 959 1056 
Q 959 750 1161 570 
Q 1363 391 1709 391 
Q 2188 391 2477 730 
Q 2766 1069 2766 1631 
L 2766 1759 
L 2194 1759 
z
M 3341 1997 
L 3341 0 
L 2766 0 
L 2766 531 
Q 2569 213 2275 61 
Q 1981 -91 1556 -91 
Q 1019 -91 701 211 
Q 384 513 384 1019 
Q 384 1609 779 1909 
Q 1175 2209 1959 2209 
L 2766 2209 
L 2766 2266 
Q 2766 2663 2505 2880 
Q 2244 3097 1772 3097 
Q 1472 3097 1187 3025 
Q 903 2953 641 2809 
L 641 3341 
Q 956 3463 1253 3523 
Q 1550 3584 1831 3584 
Q 2591 3584 2966 3190 
Q 3341 2797 3341 1997 
z
" transform="scale(0.015625)"/>
       <path id="DejaVuSans-2d" d="M 313 2009 
L 1997 2009 
L 1997 1497 
L 313 1497 
L 313 2009 
z
" transform="scale(0.015625)"/>
       <path id="DejaVuSans-73" d="M 2834 3397 
L 2834 2853 
Q 2591 2978 2328 3040 
Q 2066 3103 1784 3103 
Q 1356 3103 1142 2972 
Q 928 2841 928 2578 
Q 928 2378 1081 2264 
Q 1234 2150 1697 2047 
L 1894 2003 
Q 2506 1872 2764 1633 
Q 3022 1394 3022 966 
Q 3022 478 2636 193 
Q 2250 -91 1575 -91 
Q 1294 -91 989 -36 
Q 684 19 347 128 
L 347 722 
Q 666 556 975 473 
Q 1284 391 1588 391 
Q 1994 391 2212 530 
Q 2431 669 2431 922 
Q 2431 1156 2273 1281 
Q 2116 1406 1581 1522 
L 1381 1569 
Q 847 1681 609 1914 
Q 372 2147 372 2553 
Q 372 3047 722 3315 
Q 1072 3584 1716 3584 
Q 2034 3584 2315 3537 
Q 2597 3491 2834 3397 
z
" transform="scale(0.015625)"/>
       <path id="DejaVuSans-74" d="M 1172 4494 
L 1172 3500 
L 2356 3500 
L 2356 3053 
L 1172 3053 
L 1172 1153 
Q 1172 725 1289 603 
Q 1406 481 1766 481 
L 2356 481 
L 2356 0 
L 1766 0 
Q 1100 0 847 248 
Q 594 497 594 1153 
L 594 3053 
L 172 3053 
L 172 3500 
L 594 3500 
L 594 4494 
L 1172 4494 
z
" transform="scale(0.015625)"/>
       <path id="DejaVuSans-79" d="M 2059 -325 
Q 1816 -950 1584 -1140 
Q 1353 -1331 966 -1331 
L 506 -1331 
L 506 -850 
L 844 -850 
Q 1081 -850 1212 -737 
Q 1344 -625 1503 -206 
L 1606 56 
L 191 3500 
L 800 3500 
L 1894 763 
L 2988 3500 
L 3597 3500 
L 2059 -325 
z
" transform="scale(0.015625)"/>
       <path id="DejaVuSans-6c" d="M 603 4863 
L 1178 4863 
L 1178 0 
L 603 0 
L 603 4863 
z
" transform="scale(0.015625)"/>
       <path id="DejaVuSans-20" transform="scale(0.015625)"/>
       <path id="DejaVuSans-45" d="M 628 4666 
L 3578 4666 
L 3578 4134 
L 1259 4134 
L 1259 2753 
L 3481 2753 
L 3481 2222 
L 1259 2222 
L 1259 531 
L 3634 531 
L 3634 0 
L 628 0 
L 628 4666 
z
" transform="scale(0.015625)"/>
       <path id="DejaVuSans-4c" d="M 628 4666 
L 1259 4666 
L 1259 531 
L 3531 531 
L 3531 0 
L 628 0 
L 628 4666 
z
" transform="scale(0.015625)"/>
       <path id="DejaVuSans-4f" d="M 2522 4238 
Q 1834 4238 1429 3725 
Q 1025 3213 1025 2328 
Q 1025 1447 1429 934 
Q 1834 422 2522 422 
Q 3209 422 3611 934 
Q 4013 1447 4013 2328 
Q 4013 3213 3611 3725 
Q 3209 4238 2522 4238 
z
M 2522 4750 
Q 3503 4750 4090 4092 
Q 4678 3434 4678 2328 
Q 4678 1225 4090 567 
Q 3503 -91 2522 -91 
Q 1538 -91 948 565 
Q 359 1222 359 2328 
Q 359 3434 948 4092 
Q 1538 4750 2522 4750 
z
" transform="scale(0.015625)"/>
       <path id="DejaVuSans-53" d="M 3425 4513 
L 3425 3897 
Q 3066 4069 2747 4153 
Q 2428 4238 2131 4238 
Q 1616 4238 1336 4038 
Q 1056 3838 1056 3469 
Q 1056 3159 1242 3001 
Q 1428 2844 1947 2747 
L 2328 2669 
Q 3034 2534 3370 2195 
Q 3706 1856 3706 1288 
Q 3706 609 3251 259 
Q 2797 -91 1919 -91 
Q 1588 -91 1214 -16 
Q 841 59 441 206 
L 441 856 
Q 825 641 1194 531 
Q 1563 422 1919 422 
Q 2459 422 2753 634 
Q 3047 847 3047 1241 
Q 3047 1584 2836 1778 
Q 2625 1972 2144 2069 
L 1759 2144 
Q 1053 2284 737 2584 
Q 422 2884 422 3419 
Q 422 4038 858 4394 
Q 1294 4750 2059 4750 
Q 2388 4750 2728 4690 
Q 3069 4631 3425 4513 
z
" transform="scale(0.015625)"/>
       <path id="DejaVuSans-63" d="M 3122 3366 
L 3122 2828 
Q 2878 2963 2633 3030 
Q 2388 3097 2138 3097 
Q 1578 3097 1268 2742 
Q 959 2388 959 1747 
Q 959 1106 1268 751 
Q 1578 397 2138 397 
Q 2388 397 2633 464 
Q 2878 531 3122 666 
L 3122 134 
Q 2881 22 2623 -34 
Q 2366 -91 2075 -91 
Q 1284 -91 818 406 
Q 353 903 353 1747 
Q 353 2603 823 3093 
Q 1294 3584 2113 3584 
Q 2378 3584 2631 3529 
Q 2884 3475 3122 3366 
z
" transform="scale(0.015625)"/>
       <path id="DejaVuSans-6f" d="M 1959 3097 
Q 1497 3097 1228 2736 
Q 959 2375 959 1747 
Q 959 1119 1226 758 
Q 1494 397 1959 397 
Q 2419 397 2687 759 
Q 2956 1122 2956 1747 
Q 2956 2369 2687 2733 
Q 2419 3097 1959 3097 
z
M 1959 3584 
Q 2709 3584 3137 3096 
Q 3566 2609 3566 1747 
Q 3566 888 3137 398 
Q 2709 -91 1959 -91 
Q 1206 -91 779 398 
Q 353 888 353 1747 
Q 353 2609 779 3096 
Q 1206 3584 1959 3584 
z
" transform="scale(0.015625)"/>
      </defs>
      <use xlink:href="#DejaVuSans-41"/>
      <use xlink:href="#DejaVuSans-72" x="68.408203"/>
      <use xlink:href="#DejaVuSans-65" x="107.271484"/>
      <use xlink:href="#DejaVuSans-6e" x="168.794922"/>
      <use xlink:href="#DejaVuSans-61" x="232.173828"/>
      <use xlink:href="#DejaVuSans-2d" x="293.453125"/>
      <use xlink:href="#DejaVuSans-73" x="329.537109"/>
      <use xlink:href="#DejaVuSans-74" x="381.636719"/>
      <use xlink:href="#DejaVuSans-79" x="420.845703"/>
      <use xlink:href="#DejaVuSans-6c" x="480.025391"/>
      <use xlink:href="#DejaVuSans-65" x="507.808594"/>
      <use xlink:href="#DejaVuSans-20" x="569.332031"/>
      <use xlink:href="#DejaVuSans-45" x="601.119141"/>
      <use xlink:href="#DejaVuSans-4c" x="664.302734"/>
      <use xlink:href="#DejaVuSans-4f" x="716.390625"/>
      <use xlink:href="#DejaVuSans-20" x="795.101562"/>
      <use xlink:href="#DejaVuSans-53" x="826.888672"/>
      <use xlink:href="#DejaVuSans-63" x="890.365234"/>
      <use xlink:href="#DejaVuSans-6f" x="945.345703"/>
      <use xlink:href="#DejaVuSans-72" x="1006.527344"/>
      <use xlink:href="#DejaVuSans-65" x="1045.390625"/>
     </g>
    </g>
   </g>
   <g id="matplotlib.axis_2">
    <g id="ytick_1">
     <g id="line2d_13">
      <defs>
       <path id="md0e88436df" d="M 0 0 
L -3.5 0 
" style="stroke: #000000; stroke-width: 0.8"/>
      </defs>
      <g>
       <use xlink:href="#md0e88436df" x="176.328125" y="273.125319" style="stroke: #000000; stroke-width: 0.8"/>
      </g>
     </g>
     <g id="text_8">
      <!-- HiDream-O1-Image -->
      <g transform="translate(72.376562 276.924538) scale(0.1 -0.1)">
       <defs>
        <path id="DejaVuSans-48" d="M 628 4666 
L 1259 4666 
L 1259 2753 
L 3553 2753 
L 3553 4666 
L 4184 4666 
L 4184 0 
L 3553 0 
L 3553 2222 
L 1259 2222 
L 1259 0 
L 628 0 
L 628 4666 
z
" transform="scale(0.015625)"/>
        <path id="DejaVuSans-69" d="M 603 3500 
L 1178 3500 
L 1178 0 
L 603 0 
L 603 3500 
z
M 603 4863 
L 1178 4863 
L 1178 4134 
L 603 4134 
L 603 4863 
z
" transform="scale(0.015625)"/>
        <path id="DejaVuSans-44" d="M 1259 4147 
L 1259 519 
L 2022 519 
Q 2988 519 3436 956 
Q 3884 1394 3884 2338 
Q 3884 3275 3436 3711 
Q 2988 4147 2022 4147 
L 1259 4147 
z
M 628 4666 
L 1925 4666 
Q 3281 4666 3915 4102 
Q 4550 3538 4550 2338 
Q 4550 1131 3912 565 
Q 3275 0 1925 0 
L 628 0 
L 628 4666 
z
" transform="scale(0.015625)"/>
        <path id="DejaVuSans-6d" d="M 3328 2828 
Q 3544 3216 3844 3400 
Q 4144 3584 4550 3584 
Q 5097 3584 5394 3201 
Q 5691 2819 5691 2113 
L 5691 0 
L 5113 0 
L 5113 2094 
Q 5113 2597 4934 2840 
Q 4756 3084 4391 3084 
Q 3944 3084 3684 2787 
Q 3425 2491 3425 1978 
L 3425 0 
L 2847 0 
L 2847 2094 
Q 2847 2600 2669 2842 
Q 2491 3084 2119 3084 
Q 1678 3084 1418 2786 
Q 1159 2488 1159 1978 
L 1159 0 
L 581 0 
L 581 3500 
L 1159 3500 
L 1159 2956 
Q 1356 3278 1631 3431 
Q 1906 3584 2284 3584 
Q 2666 3584 2933 3390 
Q 3200 3197 3328 2828 
z
" transform="scale(0.015625)"/>
        <path id="DejaVuSans-49" d="M 628 4666 
L 1259 4666 
L 1259 0 
L 628 0 
L 628 4666 
z
" transform="scale(0.015625)"/>
        <path id="DejaVuSans-67" d="M 2906 1791 
Q 2906 2416 2648 2759 
Q 2391 3103 1925 3103 
Q 1463 3103 1205 2759 
Q 947 2416 947 1791 
Q 947 1169 1205 825 
Q 1463 481 1925 481 
Q 2391 481 2648 825 
Q 2906 1169 2906 1791 
z
M 3481 434 
Q 3481 -459 3084 -895 
Q 2688 -1331 1869 -1331 
Q 1566 -1331 1297 -1286 
Q 1028 -1241 775 -1147 
L 775 -588 
Q 1028 -725 1275 -790 
Q 1522 -856 1778 -856 
Q 2344 -856 2625 -561 
Q 2906 -266 2906 331 
L 2906 616 
Q 2728 306 2450 153 
Q 2172 0 1784 0 
Q 1141 0 747 490 
Q 353 981 353 1791 
Q 353 2603 747 3093 
Q 1141 3584 1784 3584 
Q 2172 3584 2450 3431 
Q 2728 3278 2906 2969 
L 2906 3500 
L 3481 3500 
L 3481 434 
z
" transform="scale(0.015625)"/>
       </defs>
       <use xlink:href="#DejaVuSans-48"/>
       <use xlink:href="#DejaVuSans-69" x="75.195312"/>
       <use xlink:href="#DejaVuSans-44" x="102.978516"/>
       <use xlink:href="#DejaVuSans-72" x="179.980469"/>
       <use xlink:href="#DejaVuSans-65" x="218.84375"/>
       <use xlink:href="#DejaVuSans-61" x="280.367188"/>
       <use xlink:href="#DejaVuSans-6d" x="341.646484"/>
       <use xlink:href="#DejaVuSans-2d" x="439.058594"/>
       <use xlink:href="#DejaVuSans-4f" x="477.892578"/>
       <use xlink:href="#DejaVuSans-31" x="556.603516"/>
       <use xlink:href="#DejaVuSans-2d" x="620.226562"/>
       <use xlink:href="#DejaVuSans-49" x="656.310547"/>
       <use xlink:href="#DejaVuSans-6d" x="685.802734"/>
       <use xlink:href="#DejaVuSans-61" x="783.214844"/>
       <use xlink:href="#DejaVuSans-67" x="844.494141"/>
       <use xlink:href="#DejaVuSans-65" x="907.970703"/>
      </g>
     </g>
    </g>
    <g id="ytick_2">
     <g id="line2d_14">
      <g>
       <use xlink:href="#md0e88436df" x="176.328125" y="244.700472" style="stroke: #000000; stroke-width: 0.8"/>
      </g>
     </g>
     <g id="text_9">
      <!-- Qwen-Image-2.0 -->
      <g transform="translate(86.348437 248.499691) scale(0.1 -0.1)">
       <defs>
        <path id="DejaVuSans-51" d="M 2522 4238 
Q 1834 4238 1429 3725 
Q 1025 3213 1025 2328 
Q 1025 1447 1429 934 
Q 1834 422 2522 422 
Q 3209 422 3611 934 
Q 4013 1447 4013 2328 
Q 4013 3213 3611 3725 
Q 3209 4238 2522 4238 
z
M 3406 84 
L 4238 -825 
L 3475 -825 
L 2784 -78 
Q 2681 -84 2626 -87 
Q 2572 -91 2522 -91 
Q 1538 -91 948 567 
Q 359 1225 359 2328 
Q 359 3434 948 4092 
Q 1538 4750 2522 4750 
Q 3503 4750 4090 4092 
Q 4678 3434 4678 2328 
Q 4678 1516 4351 937 
Q 4025 359 3406 84 
z
" transform="scale(0.015625)"/>
        <path id="DejaVuSans-77" d="M 269 3500 
L 844 3500 
L 1563 769 
L 2278 3500 
L 2956 3500 
L 3675 769 
L 4391 3500 
L 4966 3500 
L 4050 0 
L 3372 0 
L 2619 2869 
L 1863 0 
L 1184 0 
L 269 3500 
z
" transform="scale(0.015625)"/>
        <path id="DejaVuSans-2e" d="M 684 794 
L 1344 794 
L 1344 0 
L 684 0 
L 684 794 
z
" transform="scale(0.015625)"/>
       </defs>
       <use xlink:href="#DejaVuSans-51"/>
       <use xlink:href="#DejaVuSans-77" x="78.710938"/>
       <use xlink:href="#DejaVuSans-65" x="160.498047"/>
       <use xlink:href="#DejaVuSans-6e" x="222.021484"/>
       <use xlink:href="#DejaVuSans-2d" x="285.400391"/>
       <use xlink:href="#DejaVuSans-49" x="321.484375"/>
       <use xlink:href="#DejaVuSans-6d" x="350.976562"/>
       <use xlink:href="#DejaVuSans-61" x="448.388672"/>
       <use xlink:href="#DejaVuSans-67" x="509.667969"/>
       <use xlink:href="#DejaVuSans-65" x="573.144531"/>
       <use xlink:href="#DejaVuSans-2d" x="634.667969"/>
       <use xlink:href="#DejaVuSans-32" x="670.751953"/>
       <use xlink:href="#DejaVuSans-2e" x="734.375"/>
       <use xlink:href="#DejaVuSans-30" x="766.162109"/>
      </g>
     </g>
    </g>
    <g id="ytick_3">
     <g id="line2d_15">
      <g>
       <use xlink:href="#md0e88436df" x="176.328125" y="216.275626" style="stroke: #000000; stroke-width: 0.8"/>
      </g>
     </g>
     <g id="text_10">
      <!-- Z-Image-Turbo -->
      <g transform="translate(97.51875 220.074844) scale(0.1 -0.1)">
       <defs>
        <path id="DejaVuSans-5a" d="M 359 4666 
L 4025 4666 
L 4025 4184 
L 1075 531 
L 4097 531 
L 4097 0 
L 288 0 
L 288 481 
L 3238 4134 
L 359 4134 
L 359 4666 
z
" transform="scale(0.015625)"/>
        <path id="DejaVuSans-54" d="M -19 4666 
L 3928 4666 
L 3928 4134 
L 2272 4134 
L 2272 0 
L 1638 0 
L 1638 4134 
L -19 4134 
L -19 4666 
z
" transform="scale(0.015625)"/>
        <path id="DejaVuSans-75" d="M 544 1381 
L 544 3500 
L 1119 3500 
L 1119 1403 
Q 1119 906 1312 657 
Q 1506 409 1894 409 
Q 2359 409 2629 706 
Q 2900 1003 2900 1516 
L 2900 3500 
L 3475 3500 
L 3475 0 
L 2900 0 
L 2900 538 
Q 2691 219 2414 64 
Q 2138 -91 1772 -91 
Q 1169 -91 856 284 
Q 544 659 544 1381 
z
M 1991 3584 
L 1991 3584 
z
" transform="scale(0.015625)"/>
        <path id="DejaVuSans-62" d="M 3116 1747 
Q 3116 2381 2855 2742 
Q 2594 3103 2138 3103 
Q 1681 3103 1420 2742 
Q 1159 2381 1159 1747 
Q 1159 1113 1420 752 
Q 1681 391 2138 391 
Q 2594 391 2855 752 
Q 3116 1113 3116 1747 
z
M 1159 2969 
Q 1341 3281 1617 3432 
Q 1894 3584 2278 3584 
Q 2916 3584 3314 3078 
Q 3713 2572 3713 1747 
Q 3713 922 3314 415 
Q 2916 -91 2278 -91 
Q 1894 -91 1617 61 
Q 1341 213 1159 525 
L 1159 0 
L 581 0 
L 581 4863 
L 1159 4863 
L 1159 2969 
z
" transform="scale(0.015625)"/>
       </defs>
       <use xlink:href="#DejaVuSans-5a"/>
       <use xlink:href="#DejaVuSans-2d" x="66.755859"/>
       <use xlink:href="#DejaVuSans-49" x="102.839844"/>
       <use xlink:href="#DejaVuSans-6d" x="132.332031"/>
       <use xlink:href="#DejaVuSans-61" x="229.744141"/>
       <use xlink:href="#DejaVuSans-67" x="291.023438"/>
       <use xlink:href="#DejaVuSans-65" x="354.5"/>
       <use xlink:href="#DejaVuSans-2d" x="416.023438"/>
       <use xlink:href="#DejaVuSans-54" x="442.982422"/>
       <use xlink:href="#DejaVuSans-75" x="488.941406"/>
       <use xlink:href="#DejaVuSans-72" x="552.320312"/>
       <use xlink:href="#DejaVuSans-62" x="593.433594"/>
       <use xlink:href="#DejaVuSans-6f" x="656.910156"/>
      </g>
     </g>
    </g>
    <g id="ytick_4">
     <g id="line2d_16">
      <g>
       <use xlink:href="#md0e88436df" x="176.328125" y="187.850779" style="stroke: #000000; stroke-width: 0.8"/>
      </g>
     </g>
     <g id="text_11">
      <!-- Qwen-Image-Max-2025-12-30 -->
      <g transform="translate(19.853125 191.649997) scale(0.1 -0.1)">
       <defs>
        <path id="DejaVuSans-4d" d="M 628 4666 
L 1569 4666 
L 2759 1491 
L 3956 4666 
L 4897 4666 
L 4897 0 
L 4281 0 
L 4281 4097 
L 3078 897 
L 2444 897 
L 1241 4097 
L 1241 0 
L 628 0 
L 628 4666 
z
" transform="scale(0.015625)"/>
        <path id="DejaVuSans-78" d="M 3513 3500 
L 2247 1797 
L 3578 0 
L 2900 0 
L 1881 1375 
L 863 0 
L 184 0 
L 1544 1831 
L 300 3500 
L 978 3500 
L 1906 2253 
L 2834 3500 
L 3513 3500 
z
" transform="scale(0.015625)"/>
        <path id="DejaVuSans-35" d="M 691 4666 
L 3169 4666 
L 3169 4134 
L 1269 4134 
L 1269 2991 
Q 1406 3038 1543 3061 
Q 1681 3084 1819 3084 
Q 2600 3084 3056 2656 
Q 3513 2228 3513 1497 
Q 3513 744 3044 326 
Q 2575 -91 1722 -91 
Q 1428 -91 1123 -41 
Q 819 9 494 109 
L 494 744 
Q 775 591 1075 516 
Q 1375 441 1709 441 
Q 2250 441 2565 725 
Q 2881 1009 2881 1497 
Q 2881 1984 2565 2268 
Q 2250 2553 1709 2553 
Q 1456 2553 1204 2497 
Q 953 2441 691 2322 
L 691 4666 
z
" transform="scale(0.015625)"/>
       </defs>
       <use xlink:href="#DejaVuSans-51"/>
       <use xlink:href="#DejaVuSans-77" x="78.710938"/>
       <use xlink:href="#DejaVuSans-65" x="160.498047"/>
       <use xlink:href="#DejaVuSans-6e" x="222.021484"/>
       <use xlink:href="#DejaVuSans-2d" x="285.400391"/>
       <use xlink:href="#DejaVuSans-49" x="321.484375"/>
       <use xlink:href="#DejaVuSans-6d" x="350.976562"/>
       <use xlink:href="#DejaVuSans-61" x="448.388672"/>
       <use xlink:href="#DejaVuSans-67" x="509.667969"/>
       <use xlink:href="#DejaVuSans-65" x="573.144531"/>
       <use xlink:href="#DejaVuSans-2d" x="634.667969"/>
       <use xlink:href="#DejaVuSans-4d" x="670.751953"/>
       <use xlink:href="#DejaVuSans-61" x="757.03125"/>
       <use xlink:href="#DejaVuSans-78" x="818.310547"/>
       <use xlink:href="#DejaVuSans-2d" x="877.490234"/>
       <use xlink:href="#DejaVuSans-32" x="913.574219"/>
       <use xlink:href="#DejaVuSans-30" x="977.197266"/>
       <use xlink:href="#DejaVuSans-32" x="1040.820312"/>
       <use xlink:href="#DejaVuSans-35" x="1104.443359"/>
       <use xlink:href="#DejaVuSans-2d" x="1168.066406"/>
       <use xlink:href="#DejaVuSans-31" x="1204.150391"/>
       <use xlink:href="#DejaVuSans-32" x="1267.773438"/>
       <use xlink:href="#DejaVuSans-2d" x="1331.396484"/>
       <use xlink:href="#DejaVuSans-33" x="1367.480469"/>
       <use xlink:href="#DejaVuSans-30" x="1431.103516"/>
      </g>
     </g>
    </g>
    <g id="ytick_5">
     <g id="line2d_17">
      <g>
       <use xlink:href="#md0e88436df" x="176.328125" y="159.425932" style="stroke: #000000; stroke-width: 0.8"/>
      </g>
     </g>
     <g id="text_12">
      <!-- Boogu-Image-0.1-Turbo -->
      <g transform="translate(52.898438 163.225151) scale(0.1 -0.1)">
       <defs>
        <path id="DejaVuSans-42" d="M 1259 2228 
L 1259 519 
L 2272 519 
Q 2781 519 3026 730 
Q 3272 941 3272 1375 
Q 3272 1813 3026 2020 
Q 2781 2228 2272 2228 
L 1259 2228 
z
M 1259 4147 
L 1259 2741 
L 2194 2741 
Q 2656 2741 2882 2914 
Q 3109 3088 3109 3444 
Q 3109 3797 2882 3972 
Q 2656 4147 2194 4147 
L 1259 4147 
z
M 628 4666 
L 2241 4666 
Q 2963 4666 3353 4366 
Q 3744 4066 3744 3513 
Q 3744 3084 3544 2831 
Q 3344 2578 2956 2516 
Q 3422 2416 3680 2098 
Q 3938 1781 3938 1306 
Q 3938 681 3513 340 
Q 3088 0 2303 0 
L 628 0 
L 628 4666 
z
" transform="scale(0.015625)"/>
       </defs>
       <use xlink:href="#DejaVuSans-42"/>
       <use xlink:href="#DejaVuSans-6f" x="68.603516"/>
       <use xlink:href="#DejaVuSans-6f" x="129.785156"/>
       <use xlink:href="#DejaVuSans-67" x="190.966797"/>
       <use xlink:href="#DejaVuSans-75" x="254.443359"/>
       <use xlink:href="#DejaVuSans-2d" x="317.822266"/>
       <use xlink:href="#DejaVuSans-49" x="353.90625"/>
       <use xlink:href="#DejaVuSans-6d" x="383.398438"/>
       <use xlink:href="#DejaVuSans-61" x="480.810547"/>
       <use xlink:href="#DejaVuSans-67" x="542.089844"/>
       <use xlink:href="#DejaVuSans-65" x="605.566406"/>
       <use xlink:href="#DejaVuSans-2d" x="667.089844"/>
       <use xlink:href="#DejaVuSans-30" x="703.173828"/>
       <use xlink:href="#DejaVuSans-2e" x="766.796875"/>
       <use xlink:href="#DejaVuSans-31" x="798.583984"/>
       <use xlink:href="#DejaVuSans-2d" x="862.207031"/>
       <use xlink:href="#DejaVuSans-54" x="889.166016"/>
       <use xlink:href="#DejaVuSans-75" x="935.125"/>
       <use xlink:href="#DejaVuSans-72" x="998.503906"/>
       <use xlink:href="#DejaVuSans-62" x="1039.617188"/>
       <use xlink:href="#DejaVuSans-6f" x="1103.09375"/>
      </g>
     </g>
    </g>
    <g id="ytick_6">
     <g id="line2d_18">
      <g>
       <use xlink:href="#md0e88436df" x="176.328125" y="131.001085" style="stroke: #000000; stroke-width: 0.8"/>
      </g>
     </g>
     <g id="text_13">
      <!-- Seedream-5.0-Lite -->
      <g transform="translate(76.875 134.800304) scale(0.1 -0.1)">
       <defs>
        <path id="DejaVuSans-64" d="M 2906 2969 
L 2906 4863 
L 3481 4863 
L 3481 0 
L 2906 0 
L 2906 525 
Q 2725 213 2448 61 
Q 2172 -91 1784 -91 
Q 1150 -91 751 415 
Q 353 922 353 1747 
Q 353 2572 751 3078 
Q 1150 3584 1784 3584 
Q 2172 3584 2448 3432 
Q 2725 3281 2906 2969 
z
M 947 1747 
Q 947 1113 1208 752 
Q 1469 391 1925 391 
Q 2381 391 2643 752 
Q 2906 1113 2906 1747 
Q 2906 2381 2643 2742 
Q 2381 3103 1925 3103 
Q 1469 3103 1208 2742 
Q 947 2381 947 1747 
z
" transform="scale(0.015625)"/>
       </defs>
       <use xlink:href="#DejaVuSans-53"/>
       <use xlink:href="#DejaVuSans-65" x="63.476562"/>
       <use xlink:href="#DejaVuSans-65" x="125"/>
       <use xlink:href="#DejaVuSans-64" x="186.523438"/>
       <use xlink:href="#DejaVuSans-72" x="250"/>
       <use xlink:href="#DejaVuSans-65" x="288.863281"/>
       <use xlink:href="#DejaVuSans-61" x="350.386719"/>
       <use xlink:href="#DejaVuSans-6d" x="411.666016"/>
       <use xlink:href="#DejaVuSans-2d" x="509.078125"/>
       <use xlink:href="#DejaVuSans-35" x="545.162109"/>
       <use xlink:href="#DejaVuSans-2e" x="608.785156"/>
       <use xlink:href="#DejaVuSans-30" x="640.572266"/>
       <use xlink:href="#DejaVuSans-2d" x="704.195312"/>
       <use xlink:href="#DejaVuSans-4c" x="740.279297"/>
       <use xlink:href="#DejaVuSans-69" x="795.992188"/>
       <use xlink:href="#DejaVuSans-74" x="823.775391"/>
       <use xlink:href="#DejaVuSans-65" x="862.984375"/>
      </g>
     </g>
    </g>
    <g id="ytick_7">
     <g id="line2d_19">
      <g>
       <use xlink:href="#md0e88436df" x="176.328125" y="102.576238" style="stroke: #000000; stroke-width: 0.8"/>
      </g>
     </g>
     <g id="text_14">
      <!-- Boogu-Image-0.1-Turbo-Thinking -->
      <g transform="translate(7.2 106.375457) scale(0.1 -0.1)">
       <defs>
        <path id="DejaVuSans-68" d="M 3513 2113 
L 3513 0 
L 2938 0 
L 2938 2094 
Q 2938 2591 2744 2837 
Q 2550 3084 2163 3084 
Q 1697 3084 1428 2787 
Q 1159 2491 1159 1978 
L 1159 0 
L 581 0 
L 581 4863 
L 1159 4863 
L 1159 2956 
Q 1366 3272 1645 3428 
Q 1925 3584 2291 3584 
Q 2894 3584 3203 3211 
Q 3513 2838 3513 2113 
z
" transform="scale(0.015625)"/>
        <path id="DejaVuSans-6b" d="M 581 4863 
L 1159 4863 
L 1159 1991 
L 2875 3500 
L 3609 3500 
L 1753 1863 
L 3688 0 
L 2938 0 
L 1159 1709 
L 1159 0 
L 581 0 
L 581 4863 
z
" transform="scale(0.015625)"/>
       </defs>
       <use xlink:href="#DejaVuSans-42"/>
       <use xlink:href="#DejaVuSans-6f" x="68.603516"/>
       <use xlink:href="#DejaVuSans-6f" x="129.785156"/>
       <use xlink:href="#DejaVuSans-67" x="190.966797"/>
       <use xlink:href="#DejaVuSans-75" x="254.443359"/>
       <use xlink:href="#DejaVuSans-2d" x="317.822266"/>
       <use xlink:href="#DejaVuSans-49" x="353.90625"/>
       <use xlink:href="#DejaVuSans-6d" x="383.398438"/>
       <use xlink:href="#DejaVuSans-61" x="480.810547"/>
       <use xlink:href="#DejaVuSans-67" x="542.089844"/>
       <use xlink:href="#DejaVuSans-65" x="605.566406"/>
       <use xlink:href="#DejaVuSans-2d" x="667.089844"/>
       <use xlink:href="#DejaVuSans-30" x="703.173828"/>
       <use xlink:href="#DejaVuSans-2e" x="766.796875"/>
       <use xlink:href="#DejaVuSans-31" x="798.583984"/>
       <use xlink:href="#DejaVuSans-2d" x="862.207031"/>
       <use xlink:href="#DejaVuSans-54" x="889.166016"/>
       <use xlink:href="#DejaVuSans-75" x="935.125"/>
       <use xlink:href="#DejaVuSans-72" x="998.503906"/>
       <use xlink:href="#DejaVuSans-62" x="1039.617188"/>
       <use xlink:href="#DejaVuSans-6f" x="1103.09375"/>
       <use xlink:href="#DejaVuSans-2d" x="1166.150391"/>
       <use xlink:href="#DejaVuSans-54" x="1193.109375"/>
       <use xlink:href="#DejaVuSans-68" x="1254.193359"/>
       <use xlink:href="#DejaVuSans-69" x="1317.572266"/>
       <use xlink:href="#DejaVuSans-6e" x="1345.355469"/>
       <use xlink:href="#DejaVuSans-6b" x="1408.734375"/>
       <use xlink:href="#DejaVuSans-69" x="1466.644531"/>
       <use xlink:href="#DejaVuSans-6e" x="1494.427734"/>
       <use xlink:href="#DejaVuSans-67" x="1557.806641"/>
      </g>
     </g>
    </g>
    <g id="ytick_8">
     <g id="line2d_20">
      <g>
       <use xlink:href="#md0e88436df" x="176.328125" y="74.151391" style="stroke: #000000; stroke-width: 0.8"/>
      </g>
     </g>
     <g id="text_15">
      <!-- Nano-Banana-Pro -->
      <g transform="translate(82.442187 77.95061) scale(0.1 -0.1)">
       <defs>
        <path id="DejaVuSans-4e" d="M 628 4666 
L 1478 4666 
L 3547 763 
L 3547 4666 
L 4159 4666 
L 4159 0 
L 3309 0 
L 1241 3903 
L 1241 0 
L 628 0 
L 628 4666 
z
" transform="scale(0.015625)"/>
        <path id="DejaVuSans-50" d="M 1259 4147 
L 1259 2394 
L 2053 2394 
Q 2494 2394 2734 2622 
Q 2975 2850 2975 3272 
Q 2975 3691 2734 3919 
Q 2494 4147 2053 4147 
L 1259 4147 
z
M 628 4666 
L 2053 4666 
Q 2838 4666 3239 4311 
Q 3641 3956 3641 3272 
Q 3641 2581 3239 2228 
Q 2838 1875 2053 1875 
L 1259 1875 
L 1259 0 
L 628 0 
L 628 4666 
z
" transform="scale(0.015625)"/>
       </defs>
       <use xlink:href="#DejaVuSans-4e"/>
       <use xlink:href="#DejaVuSans-61" x="74.804688"/>
       <use xlink:href="#DejaVuSans-6e" x="136.083984"/>
       <use xlink:href="#DejaVuSans-6f" x="199.462891"/>
       <use xlink:href="#DejaVuSans-2d" x="262.519531"/>
       <use xlink:href="#DejaVuSans-42" x="294.978516"/>
       <use xlink:href="#DejaVuSans-61" x="363.582031"/>
       <use xlink:href="#DejaVuSans-6e" x="424.861328"/>
       <use xlink:href="#DejaVuSans-61" x="488.240234"/>
       <use xlink:href="#DejaVuSans-6e" x="549.519531"/>
       <use xlink:href="#DejaVuSans-61" x="612.898438"/>
       <use xlink:href="#DejaVuSans-2d" x="674.177734"/>
       <use xlink:href="#DejaVuSans-50" x="710.261719"/>
       <use xlink:href="#DejaVuSans-72" x="768.814453"/>
       <use xlink:href="#DejaVuSans-6f" x="807.677734"/>
      </g>
     </g>
    </g>
    <g id="ytick_9">
     <g id="line2d_21">
      <g>
       <use xlink:href="#md0e88436df" x="176.328125" y="45.726544" style="stroke: #000000; stroke-width: 0.8"/>
      </g>
     </g>
     <g id="text_16">
      <!-- GPT-Image-2 -->
      <g transform="translate(105.45625 49.525763) scale(0.1 -0.1)">
       <defs>
        <path id="DejaVuSans-47" d="M 3809 666 
L 3809 1919 
L 2778 1919 
L 2778 2438 
L 4434 2438 
L 4434 434 
Q 4069 175 3628 42 
Q 3188 -91 2688 -91 
Q 1594 -91 976 548 
Q 359 1188 359 2328 
Q 359 3472 976 4111 
Q 1594 4750 2688 4750 
Q 3144 4750 3555 4637 
Q 3966 4525 4313 4306 
L 4313 3634 
Q 3963 3931 3569 4081 
Q 3175 4231 2741 4231 
Q 1884 4231 1454 3753 
Q 1025 3275 1025 2328 
Q 1025 1384 1454 906 
Q 1884 428 2741 428 
Q 3075 428 3337 486 
Q 3600 544 3809 666 
z
" transform="scale(0.015625)"/>
       </defs>
       <use xlink:href="#DejaVuSans-47"/>
       <use xlink:href="#DejaVuSans-50" x="77.490234"/>
       <use xlink:href="#DejaVuSans-54" x="137.792969"/>
       <use xlink:href="#DejaVuSans-2d" x="189.751953"/>
       <use xlink:href="#DejaVuSans-49" x="225.835938"/>
       <use xlink:href="#DejaVuSans-6d" x="255.328125"/>
       <use xlink:href="#DejaVuSans-61" x="352.740234"/>
       <use xlink:href="#DejaVuSans-67" x="414.019531"/>
       <use xlink:href="#DejaVuSans-65" x="477.496094"/>
       <use xlink:href="#DejaVuSans-2d" x="539.019531"/>
       <use xlink:href="#DejaVuSans-32" x="575.103516"/>
      </g>
     </g>
    </g>
   </g>
   <g id="patch_3">
    <path d="M 176.328125 293.875457 
L 176.328125 24.976406 
" style="fill: none; stroke: #000000; stroke-width: 0.8; stroke-linejoin: miter; stroke-linecap: square"/>
   </g>
   <g id="patch_4">
    <path d="M 176.328125 293.875457 
L 613.973318 293.875457 
" style="fill: none; stroke: #000000; stroke-width: 0.8; stroke-linejoin: miter; stroke-linecap: square"/>
   </g>
   <g id="patch_5">
    <path d="M -420.460775 281.652773 
L 270.222912 281.652773 
L 270.222912 264.597865 
L -420.460775 264.597865 
z
" clip-path="url(#p2ebfff0f9d)" style="fill: #7ec8a0"/>
   </g>
   <g id="patch_6">
    <path d="M -420.460775 253.227926 
L 332.288958 253.227926 
L 332.288958 236.173018 
L -420.460775 236.173018 
z
" clip-path="url(#p2ebfff0f9d)" style="fill: #9ab0c8"/>
   </g>
   <g id="patch_7">
    <path d="M -420.460775 224.80308 
L 343.429017 224.80308 
L 343.429017 207.748172 
L -420.460775 207.748172 
z
" clip-path="url(#p2ebfff0f9d)" style="fill: #7ec8a0"/>
   </g>
   <g id="patch_8">
    <path d="M -420.460775 196.378233 
L 365.709136 196.378233 
L 365.709136 179.323325 
L -420.460775 179.323325 
z
" clip-path="url(#p2ebfff0f9d)" style="fill: #9ab0c8"/>
   </g>
   <g id="patch_9">
    <path d="M -420.460775 167.953386 
L 391.967848 167.953386 
L 391.967848 150.898478 
L -420.460775 150.898478 
z
" clip-path="url(#p2ebfff0f9d)" style="fill: #e8834a"/>
   </g>
   <g id="patch_10">
    <path d="M -420.460775 139.528539 
L 400.720751 139.528539 
L 400.720751 122.473631 
L -420.460775 122.473631 
z
" clip-path="url(#p2ebfff0f9d)" style="fill: #9ab0c8"/>
   </g>
   <g id="patch_11">
    <path d="M -420.460775 111.103692 
L 413.452248 111.103692 
L 413.452248 94.048784 
L -420.460775 94.048784 
z
" clip-path="url(#p2ebfff0f9d)" style="fill: #e8834a"/>
   </g>
   <g id="patch_12">
    <path d="M -420.460775 82.678845 
L 444.485271 82.678845 
L 444.485271 65.623937 
L -420.460775 65.623937 
z
" clip-path="url(#p2ebfff0f9d)" style="fill: #9ab0c8"/>
   </g>
   <g id="patch_13">
    <path d="M -420.460775 54.253999 
L 531.218591 54.253999 
L 531.218591 37.19909 
L -420.460775 37.19909 
z
" clip-path="url(#p2ebfff0f9d)" style="fill: #9ab0c8"/>
   </g>
   <g id="text_17">
    <!-- 868 -->
    <g style="fill: #333333" transform="translate(276.58866 275.884694) scale(0.1 -0.1)">
     <defs>
      <path id="DejaVuSans-36" d="M 2113 2584 
Q 1688 2584 1439 2293 
Q 1191 2003 1191 1497 
Q 1191 994 1439 701 
Q 1688 409 2113 409 
Q 2538 409 2786 701 
Q 3034 994 3034 1497 
Q 3034 2003 2786 2293 
Q 2538 2584 2113 2584 
z
M 3366 4563 
L 3366 3988 
Q 3128 4100 2886 4159 
Q 2644 4219 2406 4219 
Q 1781 4219 1451 3797 
Q 1122 3375 1075 2522 
Q 1259 2794 1537 2939 
Q 1816 3084 2150 3084 
Q 2853 3084 3261 2657 
Q 3669 2231 3669 1497 
Q 3669 778 3244 343 
Q 2819 -91 2113 -91 
Q 1303 -91 875 529 
Q 447 1150 447 2328 
Q 447 3434 972 4092 
Q 1497 4750 2381 4750 
Q 2619 4750 2861 4703 
Q 3103 4656 3366 4563 
z
" transform="scale(0.015625)"/>
     </defs>
     <use xlink:href="#DejaVuSans-38"/>
     <use xlink:href="#DejaVuSans-36" x="63.623047"/>
     <use xlink:href="#DejaVuSans-38" x="127.246094"/>
    </g>
   </g>
   <g id="text_18">
    <!-- 946 -->
    <g style="fill: #333333" transform="translate(338.654706 247.459847) scale(0.1 -0.1)">
     <defs>
      <path id="DejaVuSans-34" d="M 2419 4116 
L 825 1625 
L 2419 1625 
L 2419 4116 
z
M 2253 4666 
L 3047 4666 
L 3047 1625 
L 3713 1625 
L 3713 1100 
L 3047 1100 
L 3047 0 
L 2419 0 
L 2419 1100 
L 313 1100 
L 313 1709 
L 2253 4666 
z
" transform="scale(0.015625)"/>
     </defs>
     <use xlink:href="#DejaVuSans-39"/>
     <use xlink:href="#DejaVuSans-34" x="63.623047"/>
     <use xlink:href="#DejaVuSans-36" x="127.246094"/>
    </g>
   </g>
   <g id="text_19">
    <!-- 960 -->
    <g style="fill: #333333" transform="translate(349.794765 219.035001) scale(0.1 -0.1)">
     <use xlink:href="#DejaVuSans-39"/>
     <use xlink:href="#DejaVuSans-36" x="63.623047"/>
     <use xlink:href="#DejaVuSans-30" x="127.246094"/>
    </g>
   </g>
   <g id="text_20">
    <!-- 988 -->
    <g style="fill: #333333" transform="translate(372.074884 190.610154) scale(0.1 -0.1)">
     <use xlink:href="#DejaVuSans-39"/>
     <use xlink:href="#DejaVuSans-38" x="63.623047"/>
     <use xlink:href="#DejaVuSans-38" x="127.246094"/>
    </g>
   </g>
   <g id="text_21">
    <!-- 1021 -->
    <g style="fill: #333333" transform="translate(398.333596 162.185307) scale(0.1 -0.1)">
     <use xlink:href="#DejaVuSans-31"/>
     <use xlink:href="#DejaVuSans-30" x="63.623047"/>
     <use xlink:href="#DejaVuSans-32" x="127.246094"/>
     <use xlink:href="#DejaVuSans-31" x="190.869141"/>
    </g>
   </g>
   <g id="text_22">
    <!-- 1032 -->
    <g style="fill: #333333" transform="translate(407.0865 133.76046) scale(0.1 -0.1)">
     <use xlink:href="#DejaVuSans-31"/>
     <use xlink:href="#DejaVuSans-30" x="63.623047"/>
     <use xlink:href="#DejaVuSans-33" x="127.246094"/>
     <use xlink:href="#DejaVuSans-32" x="190.869141"/>
    </g>
   </g>
   <g id="text_23">
    <!-- 1048 -->
    <g style="fill: #333333" transform="translate(419.817996 105.335613) scale(0.1 -0.1)">
     <use xlink:href="#DejaVuSans-31"/>
     <use xlink:href="#DejaVuSans-30" x="63.623047"/>
     <use xlink:href="#DejaVuSans-34" x="127.246094"/>
     <use xlink:href="#DejaVuSans-38" x="190.869141"/>
    </g>
   </g>
   <g id="text_24">
    <!-- 1087 -->
    <g style="fill: #333333" transform="translate(450.851019 76.910766) scale(0.1 -0.1)">
     <defs>
      <path id="DejaVuSans-37" d="M 525 4666 
L 3525 4666 
L 3525 4397 
L 1831 0 
L 1172 0 
L 2766 4134 
L 525 4134 
L 525 4666 
z
" transform="scale(0.015625)"/>
     </defs>
     <use xlink:href="#DejaVuSans-31"/>
     <use xlink:href="#DejaVuSans-30" x="63.623047"/>
     <use xlink:href="#DejaVuSans-38" x="127.246094"/>
     <use xlink:href="#DejaVuSans-37" x="190.869141"/>
    </g>
   </g>
   <g id="text_25">
    <!-- 1196 -->
    <g style="fill: #333333" transform="translate(537.584339 48.485919) scale(0.1 -0.1)">
     <use xlink:href="#DejaVuSans-31"/>
     <use xlink:href="#DejaVuSans-31" x="63.623047"/>
     <use xlink:href="#DejaVuSans-39" x="127.246094"/>
     <use xlink:href="#DejaVuSans-36" x="190.869141"/>
    </g>
   </g>
   <g id="text_26">
    <!-- Boogu Arena -->
    <g transform="translate(348.064315 16.976406) scale(0.13 -0.13)">
     <defs>
      <path id="DejaVuSans-Bold-42" d="M 2456 2859 
Q 2741 2859 2887 2984 
Q 3034 3109 3034 3353 
Q 3034 3594 2887 3720 
Q 2741 3847 2456 3847 
L 1791 3847 
L 1791 2859 
L 2456 2859 
z
M 2497 819 
Q 2859 819 3042 972 
Q 3225 1125 3225 1434 
Q 3225 1738 3044 1889 
Q 2863 2041 2497 2041 
L 1791 2041 
L 1791 819 
L 2497 819 
z
M 3616 2497 
Q 4003 2384 4215 2081 
Q 4428 1778 4428 1338 
Q 4428 663 3972 331 
Q 3516 0 2584 0 
L 588 0 
L 588 4666 
L 2394 4666 
Q 3366 4666 3802 4372 
Q 4238 4078 4238 3431 
Q 4238 3091 4078 2852 
Q 3919 2613 3616 2497 
z
" transform="scale(0.015625)"/>
      <path id="DejaVuSans-Bold-6f" d="M 2203 2784 
Q 1831 2784 1636 2517 
Q 1441 2250 1441 1747 
Q 1441 1244 1636 976 
Q 1831 709 2203 709 
Q 2569 709 2762 976 
Q 2956 1244 2956 1747 
Q 2956 2250 2762 2517 
Q 2569 2784 2203 2784 
z
M 2203 3584 
Q 3106 3584 3614 3096 
Q 4122 2609 4122 1747 
Q 4122 884 3614 396 
Q 3106 -91 2203 -91 
Q 1297 -91 786 396 
Q 275 884 275 1747 
Q 275 2609 786 3096 
Q 1297 3584 2203 3584 
z
" transform="scale(0.015625)"/>
      <path id="DejaVuSans-Bold-67" d="M 2919 594 
Q 2688 288 2409 144 
Q 2131 0 1766 0 
Q 1125 0 706 504 
Q 288 1009 288 1791 
Q 288 2575 706 3076 
Q 1125 3578 1766 3578 
Q 2131 3578 2409 3434 
Q 2688 3291 2919 2981 
L 2919 3500 
L 4044 3500 
L 4044 353 
Q 4044 -491 3511 -936 
Q 2978 -1381 1966 -1381 
Q 1638 -1381 1331 -1331 
Q 1025 -1281 716 -1178 
L 716 -306 
Q 1009 -475 1290 -558 
Q 1572 -641 1856 -641 
Q 2406 -641 2662 -400 
Q 2919 -159 2919 353 
L 2919 594 
z
M 2181 2772 
Q 1834 2772 1640 2515 
Q 1447 2259 1447 1791 
Q 1447 1309 1634 1061 
Q 1822 813 2181 813 
Q 2531 813 2725 1069 
Q 2919 1325 2919 1791 
Q 2919 2259 2725 2515 
Q 2531 2772 2181 2772 
z
" transform="scale(0.015625)"/>
      <path id="DejaVuSans-Bold-75" d="M 500 1363 
L 500 3500 
L 1625 3500 
L 1625 3150 
Q 1625 2866 1622 2436 
Q 1619 2006 1619 1863 
Q 1619 1441 1641 1255 
Q 1663 1069 1716 984 
Q 1784 875 1895 815 
Q 2006 756 2150 756 
Q 2500 756 2700 1025 
Q 2900 1294 2900 1772 
L 2900 3500 
L 4019 3500 
L 4019 0 
L 2900 0 
L 2900 506 
Q 2647 200 2364 54 
Q 2081 -91 1741 -91 
Q 1134 -91 817 281 
Q 500 653 500 1363 
z
" transform="scale(0.015625)"/>
      <path id="DejaVuSans-Bold-20" transform="scale(0.015625)"/>
      <path id="DejaVuSans-Bold-41" d="M 3419 850 
L 1538 850 
L 1241 0 
L 31 0 
L 1759 4666 
L 3194 4666 
L 4922 0 
L 3713 0 
L 3419 850 
z
M 1838 1716 
L 3116 1716 
L 2478 3572 
L 1838 1716 
z
" transform="scale(0.015625)"/>
      <path id="DejaVuSans-Bold-72" d="M 3138 2547 
Q 2991 2616 2845 2648 
Q 2700 2681 2553 2681 
Q 2122 2681 1889 2404 
Q 1656 2128 1656 1613 
L 1656 0 
L 538 0 
L 538 3500 
L 1656 3500 
L 1656 2925 
Q 1872 3269 2151 3426 
Q 2431 3584 2822 3584 
Q 2878 3584 2943 3579 
Q 3009 3575 3134 3559 
L 3138 2547 
z
" transform="scale(0.015625)"/>
      <path id="DejaVuSans-Bold-65" d="M 4031 1759 
L 4031 1441 
L 1416 1441 
Q 1456 1047 1700 850 
Q 1944 653 2381 653 
Q 2734 653 3104 758 
Q 3475 863 3866 1075 
L 3866 213 
Q 3469 63 3072 -14 
Q 2675 -91 2278 -91 
Q 1328 -91 801 392 
Q 275 875 275 1747 
Q 275 2603 792 3093 
Q 1309 3584 2216 3584 
Q 3041 3584 3536 3087 
Q 4031 2591 4031 1759 
z
M 2881 2131 
Q 2881 2450 2695 2645 
Q 2509 2841 2209 2841 
Q 1884 2841 1681 2658 
Q 1478 2475 1428 2131 
L 2881 2131 
z
" transform="scale(0.015625)"/>
      <path id="DejaVuSans-Bold-6e" d="M 4056 2131 
L 4056 0 
L 2931 0 
L 2931 347 
L 2931 1631 
Q 2931 2084 2911 2256 
Q 2891 2428 2841 2509 
Q 2775 2619 2662 2680 
Q 2550 2741 2406 2741 
Q 2056 2741 1856 2470 
Q 1656 2200 1656 1722 
L 1656 0 
L 538 0 
L 538 3500 
L 1656 3500 
L 1656 2988 
Q 1909 3294 2193 3439 
Q 2478 3584 2822 3584 
Q 3428 3584 3742 3212 
Q 4056 2841 4056 2131 
z
" transform="scale(0.015625)"/>
      <path id="DejaVuSans-Bold-61" d="M 2106 1575 
Q 1756 1575 1579 1456 
Q 1403 1338 1403 1106 
Q 1403 894 1545 773 
Q 1688 653 1941 653 
Q 2256 653 2472 879 
Q 2688 1106 2688 1447 
L 2688 1575 
L 2106 1575 
z
M 3816 1997 
L 3816 0 
L 2688 0 
L 2688 519 
Q 2463 200 2181 54 
Q 1900 -91 1497 -91 
Q 953 -91 614 226 
Q 275 544 275 1050 
Q 275 1666 698 1953 
Q 1122 2241 2028 2241 
L 2688 2241 
L 2688 2328 
Q 2688 2594 2478 2717 
Q 2269 2841 1825 2841 
Q 1466 2841 1156 2769 
Q 847 2697 581 2553 
L 581 3406 
Q 941 3494 1303 3539 
Q 1666 3584 2028 3584 
Q 2975 3584 3395 3211 
Q 3816 2838 3816 1997 
z
" transform="scale(0.015625)"/>
     </defs>
     <use xlink:href="#DejaVuSans-Bold-42"/>
     <use xlink:href="#DejaVuSans-Bold-6f" x="76.220703"/>
     <use xlink:href="#DejaVuSans-Bold-6f" x="144.921875"/>
     <use xlink:href="#DejaVuSans-Bold-67" x="213.623047"/>
     <use xlink:href="#DejaVuSans-Bold-75" x="285.205078"/>
     <use xlink:href="#DejaVuSans-Bold-20" x="356.396484"/>
     <use xlink:href="#DejaVuSans-Bold-41" x="391.210938"/>
     <use xlink:href="#DejaVuSans-Bold-72" x="468.603516"/>
     <use xlink:href="#DejaVuSans-Bold-65" x="517.919922"/>
     <use xlink:href="#DejaVuSans-Bold-6e" x="585.742188"/>
     <use xlink:href="#DejaVuSans-Bold-61" x="656.933594"/>
    </g>
   </g>
   <g id="legend_1">
    <g id="patch_14">
     <path d="M 484.792381 289.375457 
L 607.673318 289.375457 
Q 609.473318 289.375457 609.473318 287.575457 
L 609.473318 248.84452 
Q 609.473318 247.04452 607.673318 247.04452 
L 484.792381 247.04452 
Q 482.992381 247.04452 482.992381 248.84452 
L 482.992381 287.575457 
Q 482.992381 289.375457 484.792381 289.375457 
z
" style="fill: #ffffff; opacity: 0.8; stroke: #cccccc; stroke-linejoin: miter"/>
    </g>
    <g id="patch_15">
     <path d="M 486.592381 257.483114 
L 504.592381 257.483114 
L 504.592381 251.183114 
L 486.592381 251.183114 
z
" style="fill: #9ab0c8; stroke: #9ab0c8; stroke-linejoin: miter"/>
    </g>
    <g id="text_27">
     <!-- Proprietary -->
     <g transform="translate(511.792381 257.483114) scale(0.09 -0.09)">
      <defs>
       <path id="DejaVuSans-70" d="M 1159 525 
L 1159 -1331 
L 581 -1331 
L 581 3500 
L 1159 3500 
L 1159 2969 
Q 1341 3281 1617 3432 
Q 1894 3584 2278 3584 
Q 2916 3584 3314 3078 
Q 3713 2572 3713 1747 
Q 3713 922 3314 415 
Q 2916 -91 2278 -91 
Q 1894 -91 1617 61 
Q 1341 213 1159 525 
z
M 3116 1747 
Q 3116 2381 2855 2742 
Q 2594 3103 2138 3103 
Q 1681 3103 1420 2742 
Q 1159 2381 1159 1747 
Q 1159 1113 1420 752 
Q 1681 391 2138 391 
Q 2594 391 2855 752 
Q 3116 1113 3116 1747 
z
" transform="scale(0.015625)"/>
      </defs>
      <use xlink:href="#DejaVuSans-50"/>
      <use xlink:href="#DejaVuSans-72" x="58.552734"/>
      <use xlink:href="#DejaVuSans-6f" x="97.416016"/>
      <use xlink:href="#DejaVuSans-70" x="158.597656"/>
      <use xlink:href="#DejaVuSans-72" x="222.074219"/>
      <use xlink:href="#DejaVuSans-69" x="263.1875"/>
      <use xlink:href="#DejaVuSans-65" x="290.970703"/>
      <use xlink:href="#DejaVuSans-74" x="352.494141"/>
      <use xlink:href="#DejaVuSans-61" x="391.703125"/>
      <use xlink:href="#DejaVuSans-72" x="452.982422"/>
      <use xlink:href="#DejaVuSans-79" x="494.095703"/>
     </g>
    </g>
    <g id="patch_16">
     <path d="M 486.592381 270.693426 
L 504.592381 270.693426 
L 504.592381 264.393426 
L 486.592381 264.393426 
z
" style="fill: #7ec8a0; stroke: #7ec8a0; stroke-linejoin: miter"/>
    </g>
    <g id="text_28">
     <!-- Open-source -->
     <g transform="translate(511.792381 270.693426) scale(0.09 -0.09)">
      <use xlink:href="#DejaVuSans-4f"/>
      <use xlink:href="#DejaVuSans-70" x="78.710938"/>
      <use xlink:href="#DejaVuSans-65" x="142.1875"/>
      <use xlink:href="#DejaVuSans-6e" x="203.710938"/>
      <use xlink:href="#DejaVuSans-2d" x="267.089844"/>
      <use xlink:href="#DejaVuSans-73" x="303.173828"/>
      <use xlink:href="#DejaVuSans-6f" x="355.273438"/>
      <use xlink:href="#DejaVuSans-75" x="416.455078"/>
      <use xlink:href="#DejaVuSans-72" x="479.833984"/>
      <use xlink:href="#DejaVuSans-63" x="518.697266"/>
      <use xlink:href="#DejaVuSans-65" x="573.677734"/>
     </g>
    </g>
    <g id="patch_17">
     <path d="M 486.592381 283.903739 
L 504.592381 283.903739 
L 504.592381 277.603739 
L 486.592381 277.603739 
z
" style="fill: #e8834a; stroke: #e8834a; stroke-linejoin: miter"/>
    </g>
    <g id="text_29">
     <!-- Boogu (open-source) -->
     <g transform="translate(511.792381 283.903739) scale(0.09 -0.09)">
      <defs>
       <path id="DejaVuSans-28" d="M 1984 4856 
Q 1566 4138 1362 3434 
Q 1159 2731 1159 2009 
Q 1159 1288 1364 580 
Q 1569 -128 1984 -844 
L 1484 -844 
Q 1016 -109 783 600 
Q 550 1309 550 2009 
Q 550 2706 781 3412 
Q 1013 4119 1484 4856 
L 1984 4856 
z
" transform="scale(0.015625)"/>
       <path id="DejaVuSans-29" d="M 513 4856 
L 1013 4856 
Q 1481 4119 1714 3412 
Q 1947 2706 1947 2009 
Q 1947 1309 1714 600 
Q 1481 -109 1013 -844 
L 513 -844 
Q 928 -128 1133 580 
Q 1338 1288 1338 2009 
Q 1338 2731 1133 3434 
Q 928 4138 513 4856 
z
" transform="scale(0.015625)"/>
      </defs>
      <use xlink:href="#DejaVuSans-42"/>
      <use xlink:href="#DejaVuSans-6f" x="68.603516"/>
      <use xlink:href="#DejaVuSans-6f" x="129.785156"/>
      <use xlink:href="#DejaVuSans-67" x="190.966797"/>
      <use xlink:href="#DejaVuSans-75" x="254.443359"/>
      <use xlink:href="#DejaVuSans-20" x="317.822266"/>
      <use xlink:href="#DejaVuSans-28" x="349.609375"/>
      <use xlink:href="#DejaVuSans-6f" x="388.623047"/>
      <use xlink:href="#DejaVuSans-70" x="449.804688"/>
      <use xlink:href="#DejaVuSans-65" x="513.28125"/>
      <use xlink:href="#DejaVuSans-6e" x="574.804688"/>
      <use xlink:href="#DejaVuSans-2d" x="638.183594"/>
      <use xlink:href="#DejaVuSans-73" x="674.267578"/>
      <use xlink:href="#DejaVuSans-6f" x="726.367188"/>
      <use xlink:href="#DejaVuSans-75" x="787.548828"/>
      <use xlink:href="#DejaVuSans-72" x="850.927734"/>
      <use xlink:href="#DejaVuSans-63" x="889.791016"/>
      <use xlink:href="#DejaVuSans-65" x="944.771484"/>
      <use xlink:href="#DejaVuSans-29" x="1006.294922"/>
     </g>
    </g>
   </g>
  </g>
  <g id="axes_2">
   <g id="patch_18">
    <path d="M 646.376923 293.875457 
L 865.19952 293.875457 
L 865.19952 24.976406 
L 646.376923 24.976406 
z
" style="fill: #ffffff"/>
   </g>
   <g id="matplotlib.axis_3">
    <g id="text_30">
     <!-- Inference Time → -->
     <g transform="translate(712.692128 305.473895) scale(0.1 -0.1)">
      <defs>
       <path id="DejaVuSans-66" d="M 2375 4863 
L 2375 4384 
L 1825 4384 
Q 1516 4384 1395 4259 
Q 1275 4134 1275 3809 
L 1275 3500 
L 2222 3500 
L 2222 3053 
L 1275 3053 
L 1275 0 
L 697 0 
L 697 3053 
L 147 3053 
L 147 3500 
L 697 3500 
L 697 3744 
Q 697 4328 969 4595 
Q 1241 4863 1831 4863 
L 2375 4863 
z
" transform="scale(0.015625)"/>
       <path id="DejaVuSans-2192" d="M 5050 2147 
L 5050 1866 
L 3822 638 
L 3447 1013 
L 4175 1741 
L 366 1741 
L 366 2272 
L 4175 2272 
L 3447 3000 
L 3822 3375 
L 5050 2147 
z
" transform="scale(0.015625)"/>
      </defs>
      <use xlink:href="#DejaVuSans-49"/>
      <use xlink:href="#DejaVuSans-6e" x="29.492188"/>
      <use xlink:href="#DejaVuSans-66" x="92.871094"/>
      <use xlink:href="#DejaVuSans-65" x="128.076172"/>
      <use xlink:href="#DejaVuSans-72" x="189.599609"/>
      <use xlink:href="#DejaVuSans-65" x="228.462891"/>
      <use xlink:href="#DejaVuSans-6e" x="289.986328"/>
      <use xlink:href="#DejaVuSans-63" x="353.365234"/>
      <use xlink:href="#DejaVuSans-65" x="408.345703"/>
      <use xlink:href="#DejaVuSans-20" x="469.869141"/>
      <use xlink:href="#DejaVuSans-54" x="501.65625"/>
      <use xlink:href="#DejaVuSans-69" x="559.615234"/>
      <use xlink:href="#DejaVuSans-6d" x="587.398438"/>
      <use xlink:href="#DejaVuSans-65" x="684.810547"/>
      <use xlink:href="#DejaVuSans-20" x="746.333984"/>
      <use xlink:href="#DejaVuSans-2192" x="778.121094"/>
     </g>
    </g>
   </g>
   <g id="matplotlib.axis_4">
    <g id="text_31">
     <!-- Quality → -->
     <g transform="translate(640.297236 183.071244) rotate(-90) scale(0.1 -0.1)">
      <use xlink:href="#DejaVuSans-51"/>
      <use xlink:href="#DejaVuSans-75" x="78.710938"/>
      <use xlink:href="#DejaVuSans-61" x="142.089844"/>
      <use xlink:href="#DejaVuSans-6c" x="203.369141"/>
      <use xlink:href="#DejaVuSans-69" x="231.152344"/>
      <use xlink:href="#DejaVuSans-74" x="258.935547"/>
      <use xlink:href="#DejaVuSans-79" x="298.144531"/>
      <use xlink:href="#DejaVuSans-20" x="357.324219"/>
      <use xlink:href="#DejaVuSans-2192" x="389.111328"/>
     </g>
    </g>
   </g>
   <g id="patch_19">
    <path d="M 646.376923 293.875457 
L 646.376923 24.976406 
" style="fill: none; opacity: 0.3; stroke: #000000; stroke-width: 0.8; stroke-linejoin: miter; stroke-linecap: square"/>
   </g>
   <g id="patch_20">
    <path d="M 646.376923 293.875457 
L 865.19952 293.875457 
" style="fill: none; opacity: 0.3; stroke: #000000; stroke-width: 0.8; stroke-linejoin: miter; stroke-linecap: square"/>
   </g>
   <g id="patch_21">
    <path d="M 677.637294 243.730549 
Q 677.637294 245.394373 677.637294 247.058197 
" style="fill: none; stroke: #aaaaaa; stroke-width: 0.8; stroke-linecap: round"/>
   </g>
   <g id="text_32">
    <!-- Boogu-Image-0.1- -->
    <g style="fill: #333333" transform="translate(637.213232 227.776791) scale(0.09 -0.09)">
     <use xlink:href="#DejaVuSans-42"/>
     <use xlink:href="#DejaVuSans-6f" x="68.603516"/>
     <use xlink:href="#DejaVuSans-6f" x="129.785156"/>
     <use xlink:href="#DejaVuSans-67" x="190.966797"/>
     <use xlink:href="#DejaVuSans-75" x="254.443359"/>
     <use xlink:href="#DejaVuSans-2d" x="317.822266"/>
     <use xlink:href="#DejaVuSans-49" x="353.90625"/>
     <use xlink:href="#DejaVuSans-6d" x="383.398438"/>
     <use xlink:href="#DejaVuSans-61" x="480.810547"/>
     <use xlink:href="#DejaVuSans-67" x="542.089844"/>
     <use xlink:href="#DejaVuSans-65" x="605.566406"/>
     <use xlink:href="#DejaVuSans-2d" x="667.089844"/>
     <use xlink:href="#DejaVuSans-30" x="703.173828"/>
     <use xlink:href="#DejaVuSans-2e" x="766.796875"/>
     <use xlink:href="#DejaVuSans-31" x="798.583984"/>
     <use xlink:href="#DejaVuSans-2d" x="862.207031"/>
    </g>
    <!-- Turbo -->
    <g style="fill: #333333" transform="translate(665.257372 237.854822) scale(0.09 -0.09)">
     <use xlink:href="#DejaVuSans-54"/>
     <use xlink:href="#DejaVuSans-75" x="45.958984"/>
     <use xlink:href="#DejaVuSans-72" x="109.337891"/>
     <use xlink:href="#DejaVuSans-62" x="150.451172"/>
     <use xlink:href="#DejaVuSans-6f" x="213.927734"/>
    </g>
   </g>
   <g id="patch_22">
    <path d="M 718.275777 189.950739 
Q 718.275777 191.614563 718.275777 193.278387 
" style="fill: none; stroke: #aaaaaa; stroke-width: 0.8; stroke-linecap: round"/>
   </g>
   <g id="text_33">
    <!-- Boogu-Image-0.1- -->
    <g style="fill: #333333" transform="translate(677.851714 173.99698) scale(0.09 -0.09)">
     <use xlink:href="#DejaVuSans-42"/>
     <use xlink:href="#DejaVuSans-6f" x="68.603516"/>
     <use xlink:href="#DejaVuSans-6f" x="129.785156"/>
     <use xlink:href="#DejaVuSans-67" x="190.966797"/>
     <use xlink:href="#DejaVuSans-75" x="254.443359"/>
     <use xlink:href="#DejaVuSans-2d" x="317.822266"/>
     <use xlink:href="#DejaVuSans-49" x="353.90625"/>
     <use xlink:href="#DejaVuSans-6d" x="383.398438"/>
     <use xlink:href="#DejaVuSans-61" x="480.810547"/>
     <use xlink:href="#DejaVuSans-67" x="542.089844"/>
     <use xlink:href="#DejaVuSans-65" x="605.566406"/>
     <use xlink:href="#DejaVuSans-2d" x="667.089844"/>
     <use xlink:href="#DejaVuSans-30" x="703.173828"/>
     <use xlink:href="#DejaVuSans-2e" x="766.796875"/>
     <use xlink:href="#DejaVuSans-31" x="798.583984"/>
     <use xlink:href="#DejaVuSans-2d" x="862.207031"/>
    </g>
    <!-- Turbo-PE -->
    <g style="fill: #333333" transform="translate(698.631167 184.075012) scale(0.09 -0.09)">
     <use xlink:href="#DejaVuSans-54"/>
     <use xlink:href="#DejaVuSans-75" x="45.958984"/>
     <use xlink:href="#DejaVuSans-72" x="109.337891"/>
     <use xlink:href="#DejaVuSans-62" x="150.451172"/>
     <use xlink:href="#DejaVuSans-6f" x="213.927734"/>
     <use xlink:href="#DejaVuSans-2d" x="276.984375"/>
     <use xlink:href="#DejaVuSans-50" x="313.068359"/>
     <use xlink:href="#DejaVuSans-45" x="373.371094"/>
    </g>
   </g>
   <g id="patch_23">
    <path d="M 755.788222 145.13423 
Q 755.788222 146.798054 755.788222 148.461879 
" style="fill: none; stroke: #aaaaaa; stroke-width: 0.8; stroke-linecap: round"/>
   </g>
   <g id="text_34">
    <!-- Boogu-Image-0.1- -->
    <g style="fill: #333333" transform="translate(715.364159 129.180472) scale(0.09 -0.09)">
     <use xlink:href="#DejaVuSans-42"/>
     <use xlink:href="#DejaVuSans-6f" x="68.603516"/>
     <use xlink:href="#DejaVuSans-6f" x="129.785156"/>
     <use xlink:href="#DejaVuSans-67" x="190.966797"/>
     <use xlink:href="#DejaVuSans-75" x="254.443359"/>
     <use xlink:href="#DejaVuSans-2d" x="317.822266"/>
     <use xlink:href="#DejaVuSans-49" x="353.90625"/>
     <use xlink:href="#DejaVuSans-6d" x="383.398438"/>
     <use xlink:href="#DejaVuSans-61" x="480.810547"/>
     <use xlink:href="#DejaVuSans-67" x="542.089844"/>
     <use xlink:href="#DejaVuSans-65" x="605.566406"/>
     <use xlink:href="#DejaVuSans-2d" x="667.089844"/>
     <use xlink:href="#DejaVuSans-30" x="703.173828"/>
     <use xlink:href="#DejaVuSans-2e" x="766.796875"/>
     <use xlink:href="#DejaVuSans-31" x="798.583984"/>
     <use xlink:href="#DejaVuSans-2d" x="862.207031"/>
    </g>
    <!-- Turbo-Thinking -->
    <g style="fill: #333333" transform="translate(722.844003 139.258503) scale(0.09 -0.09)">
     <use xlink:href="#DejaVuSans-54"/>
     <use xlink:href="#DejaVuSans-75" x="45.958984"/>
     <use xlink:href="#DejaVuSans-72" x="109.337891"/>
     <use xlink:href="#DejaVuSans-62" x="150.451172"/>
     <use xlink:href="#DejaVuSans-6f" x="213.927734"/>
     <use xlink:href="#DejaVuSans-2d" x="276.984375"/>
     <use xlink:href="#DejaVuSans-54" x="303.943359"/>
     <use xlink:href="#DejaVuSans-68" x="365.027344"/>
     <use xlink:href="#DejaVuSans-69" x="428.40625"/>
     <use xlink:href="#DejaVuSans-6e" x="456.189453"/>
     <use xlink:href="#DejaVuSans-6b" x="519.568359"/>
     <use xlink:href="#DejaVuSans-69" x="577.478516"/>
     <use xlink:href="#DejaVuSans-6e" x="605.261719"/>
     <use xlink:href="#DejaVuSans-67" x="668.640625"/>
    </g>
   </g>
   <g id="patch_24">
    <path d="M 808.930852 86.872769 
Q 808.930852 88.536593 808.930852 90.200417 
" style="fill: none; stroke: #aaaaaa; stroke-width: 0.8; stroke-linecap: round"/>
   </g>
   <g id="text_35">
    <!-- Boogu-Image-0.1- -->
    <g style="fill: #333333" transform="translate(768.50679 70.919011) scale(0.09 -0.09)">
     <use xlink:href="#DejaVuSans-42"/>
     <use xlink:href="#DejaVuSans-6f" x="68.603516"/>
     <use xlink:href="#DejaVuSans-6f" x="129.785156"/>
     <use xlink:href="#DejaVuSans-67" x="190.966797"/>
     <use xlink:href="#DejaVuSans-75" x="254.443359"/>
     <use xlink:href="#DejaVuSans-2d" x="317.822266"/>
     <use xlink:href="#DejaVuSans-49" x="353.90625"/>
     <use xlink:href="#DejaVuSans-6d" x="383.398438"/>
     <use xlink:href="#DejaVuSans-61" x="480.810547"/>
     <use xlink:href="#DejaVuSans-67" x="542.089844"/>
     <use xlink:href="#DejaVuSans-65" x="605.566406"/>
     <use xlink:href="#DejaVuSans-2d" x="667.089844"/>
     <use xlink:href="#DejaVuSans-30" x="703.173828"/>
     <use xlink:href="#DejaVuSans-2e" x="766.796875"/>
     <use xlink:href="#DejaVuSans-31" x="798.583984"/>
     <use xlink:href="#DejaVuSans-2d" x="862.207031"/>
    </g>
    <!-- Pro -->
    <g style="fill: #333333" transform="translate(801.794134 80.997042) scale(0.09 -0.09)">
     <use xlink:href="#DejaVuSans-50"/>
     <use xlink:href="#DejaVuSans-72" x="58.552734"/>
     <use xlink:href="#DejaVuSans-6f" x="97.416016"/>
    </g>
   </g>
   <g id="text_36">
    <!-- T2I Variant Trade-off -->
    <g transform="translate(685.906972 16.976406) scale(0.12 -0.12)">
     <defs>
      <path id="DejaVuSans-Bold-54" d="M 31 4666 
L 4331 4666 
L 4331 3756 
L 2784 3756 
L 2784 0 
L 1581 0 
L 1581 3756 
L 31 3756 
L 31 4666 
z
" transform="scale(0.015625)"/>
      <path id="DejaVuSans-Bold-32" d="M 1844 884 
L 3897 884 
L 3897 0 
L 506 0 
L 506 884 
L 2209 2388 
Q 2438 2594 2547 2791 
Q 2656 2988 2656 3200 
Q 2656 3528 2436 3728 
Q 2216 3928 1850 3928 
Q 1569 3928 1234 3808 
Q 900 3688 519 3450 
L 519 4475 
Q 925 4609 1322 4679 
Q 1719 4750 2100 4750 
Q 2938 4750 3402 4381 
Q 3866 4013 3866 3353 
Q 3866 2972 3669 2642 
Q 3472 2313 2841 1759 
L 1844 884 
z
" transform="scale(0.015625)"/>
      <path id="DejaVuSans-Bold-49" d="M 588 4666 
L 1791 4666 
L 1791 0 
L 588 0 
L 588 4666 
z
" transform="scale(0.015625)"/>
      <path id="DejaVuSans-Bold-56" d="M 31 4666 
L 1241 4666 
L 2478 1222 
L 3713 4666 
L 4922 4666 
L 3194 0 
L 1759 0 
L 31 4666 
z
" transform="scale(0.015625)"/>
      <path id="DejaVuSans-Bold-69" d="M 538 3500 
L 1656 3500 
L 1656 0 
L 538 0 
L 538 3500 
z
M 538 4863 
L 1656 4863 
L 1656 3950 
L 538 3950 
L 538 4863 
z
" transform="scale(0.015625)"/>
      <path id="DejaVuSans-Bold-74" d="M 1759 4494 
L 1759 3500 
L 2913 3500 
L 2913 2700 
L 1759 2700 
L 1759 1216 
Q 1759 972 1856 886 
Q 1953 800 2241 800 
L 2816 800 
L 2816 0 
L 1856 0 
Q 1194 0 917 276 
Q 641 553 641 1216 
L 641 2700 
L 84 2700 
L 84 3500 
L 641 3500 
L 641 4494 
L 1759 4494 
z
" transform="scale(0.015625)"/>
      <path id="DejaVuSans-Bold-64" d="M 2919 2988 
L 2919 4863 
L 4044 4863 
L 4044 0 
L 2919 0 
L 2919 506 
Q 2688 197 2409 53 
Q 2131 -91 1766 -91 
Q 1119 -91 703 423 
Q 288 938 288 1747 
Q 288 2556 703 3070 
Q 1119 3584 1766 3584 
Q 2128 3584 2408 3439 
Q 2688 3294 2919 2988 
z
M 2181 722 
Q 2541 722 2730 984 
Q 2919 1247 2919 1747 
Q 2919 2247 2730 2509 
Q 2541 2772 2181 2772 
Q 1825 2772 1636 2509 
Q 1447 2247 1447 1747 
Q 1447 1247 1636 984 
Q 1825 722 2181 722 
z
" transform="scale(0.015625)"/>
      <path id="DejaVuSans-Bold-2d" d="M 347 2297 
L 2309 2297 
L 2309 1388 
L 347 1388 
L 347 2297 
z
" transform="scale(0.015625)"/>
      <path id="DejaVuSans-Bold-66" d="M 2841 4863 
L 2841 4128 
L 2222 4128 
Q 1984 4128 1890 4042 
Q 1797 3956 1797 3744 
L 1797 3500 
L 2753 3500 
L 2753 2700 
L 1797 2700 
L 1797 0 
L 678 0 
L 678 2700 
L 122 2700 
L 122 3500 
L 678 3500 
L 678 3744 
Q 678 4316 997 4589 
Q 1316 4863 1984 4863 
L 2841 4863 
z
" transform="scale(0.015625)"/>
     </defs>
     <use xlink:href="#DejaVuSans-Bold-54"/>
     <use xlink:href="#DejaVuSans-Bold-32" x="68.212891"/>
     <use xlink:href="#DejaVuSans-Bold-49" x="137.792969"/>
     <use xlink:href="#DejaVuSans-Bold-20" x="175"/>
     <use xlink:href="#DejaVuSans-Bold-56" x="209.814453"/>
     <use xlink:href="#DejaVuSans-Bold-61" x="281.707031"/>
     <use xlink:href="#DejaVuSans-Bold-72" x="349.1875"/>
     <use xlink:href="#DejaVuSans-Bold-69" x="398.503906"/>
     <use xlink:href="#DejaVuSans-Bold-61" x="432.78125"/>
     <use xlink:href="#DejaVuSans-Bold-6e" x="500.261719"/>
     <use xlink:href="#DejaVuSans-Bold-74" x="571.453125"/>
     <use xlink:href="#DejaVuSans-Bold-20" x="619.255859"/>
     <use xlink:href="#DejaVuSans-Bold-54" x="654.070312"/>
     <use xlink:href="#DejaVuSans-Bold-72" x="711.283203"/>
     <use xlink:href="#DejaVuSans-Bold-61" x="760.599609"/>
     <use xlink:href="#DejaVuSans-Bold-64" x="828.080078"/>
     <use xlink:href="#DejaVuSans-Bold-65" x="899.662109"/>
     <use xlink:href="#DejaVuSans-Bold-2d" x="967.484375"/>
     <use xlink:href="#DejaVuSans-Bold-6f" x="1008.988281"/>
     <use xlink:href="#DejaVuSans-Bold-66" x="1077.689453"/>
     <use xlink:href="#DejaVuSans-Bold-66" x="1121.195312"/>
    </g>
   </g>
   <g id="PathCollection_1">
    <defs>
     <path id="mbcf054d8d5" d="M 0 4.472136 
C 1.186024 4.472136 2.323632 4.000923 3.162278 3.162278 
C 4.000923 2.323632 4.472136 1.186024 4.472136 0 
C 4.472136 -1.186024 4.000923 -2.323632 3.162278 -3.162278 
C 2.323632 -4.000923 1.186024 -4.472136 0 -4.472136 
C -1.186024 -4.472136 -2.323632 -4.000923 -3.162278 -3.162278 
C -4.000923 -2.323632 -4.472136 -1.186024 -4.472136 0 
C -4.472136 1.186024 -4.000923 2.323632 -3.162278 3.162278 
C -2.323632 4.000923 -1.186024 4.472136 0 4.472136 
z
" style="stroke: #e8834a"/>
    </defs>
    <g clip-path="url(#p55e984d12c)">
     <use xlink:href="#mbcf054d8d5" x="677.637294" y="249.058949" style="fill: #e8834a; stroke: #e8834a"/>
     <use xlink:href="#mbcf054d8d5" x="718.275777" y="195.279139" style="fill: #e8834a; stroke: #e8834a"/>
     <use xlink:href="#mbcf054d8d5" x="755.788222" y="150.46263" style="fill: #e8834a; stroke: #e8834a"/>
     <use xlink:href="#mbcf054d8d5" x="808.930852" y="92.201169" style="fill: #e8834a; stroke: #e8834a"/>
    </g>
   </g>
  </g>
 </g>
 <defs>
  <clipPath id="p2ebfff0f9d">
   <rect x="176.328125" y="24.976406" width="437.645193" height="268.899051"/>
  </clipPath>
  <clipPath id="p55e984d12c">
   <rect x="646.376923" y="24.976406" width="218.822597" height="268.899051"/>
  </clipPath>
 </defs>
</svg>
